<svg width="296" height="47" viewBox="0 0 296 47" fill="none" xmlns="http://www.w3.org/2000/svg">
<path d="M23.1248 46.4532C35.8962 46.4532 46.2496 36.0908 46.2496 23.3081C46.2496 10.5255 35.8962 0.163086 23.1248 0.163086C10.3533 0.163086 0 10.5255 0 23.3081C0 36.0908 10.3533 46.4532 23.1248 46.4532Z" fill="#CF2A1B"/>
<path fill-rule="evenodd" clip-rule="evenodd" d="M23.1231 7.09973C24.0243 7.09973 24.755 6.36844 24.755 5.46637C24.755 4.56428 24.0243 3.83301 23.1231 3.83301C22.2217 3.83301 21.4911 4.56428 21.4911 5.46637C21.4911 6.36844 22.2217 7.09973 23.1231 7.09973ZM24.0717 8.23966H22.2501V10.7303L7.82849 13.4814V14.773H8.81514L6.53809 30.7262H9.65014V14.773H10.7887V30.7262H13.9008L11.6237 14.773H22.2501V17.8128C22.2501 18.3157 22.6579 18.7235 23.161 18.7235C23.664 18.7235 24.0717 18.3157 24.0717 17.8128V14.773H34.6984L32.4213 30.7262H35.5333V14.773H36.6718V30.7262H39.7838L37.5067 14.773H38.4936V13.4814L24.0717 10.7303V8.23966ZM23.1987 21.6104L18.9862 30.1191C21.4141 28.1308 24.9076 28.1308 27.3355 30.1191L23.1987 21.6104ZM14.1284 40.1464L18.341 31.6379L22.4778 40.1464C20.0499 38.1581 16.5564 38.1581 14.1284 40.1464ZM28.0569 31.6379L23.8442 40.1464C26.2723 38.1581 29.7656 38.1581 32.1936 40.1464L28.0569 31.6379ZM6.53809 31.866H13.8628L13.2556 33.7652H7.25917L6.53809 31.866ZM39.746 31.866H32.4213L33.1423 33.7652H39.1387L39.746 31.866Z" fill="#F7F6F5"/>
<path d="M57.978 18.9676V18.0186C58.3638 17.9105 58.68 17.7872 58.927 17.6483C59.1739 17.4939 59.3822 17.2856 59.5519 17.0234C59.737 16.7456 59.9222 16.383 60.1074 15.9356L65.0604 4.06215L64.6669 3.04377L64.8521 2.76603H67.6295L72.7908 15.9124C72.9915 16.4216 73.1766 16.8074 73.3463 17.0697C73.516 17.3319 73.7166 17.5249 73.9481 17.6483C74.195 17.7717 74.5112 17.8952 74.897 18.0186V18.9676H67.9998V18.0186C68.6479 17.9105 69.1185 17.7948 69.4117 17.6714C69.7049 17.548 69.8591 17.3474 69.8746 17.0697C69.9054 16.7919 69.8283 16.3985 69.6431 15.8893L68.5785 13.2739H62.9079L61.9127 15.7735C61.7275 16.2982 61.6504 16.707 61.6812 17.0002C61.712 17.278 61.8741 17.4863 62.1673 17.6251C62.4758 17.764 62.9542 17.8952 63.6023 18.0186V18.9676H57.978ZM63.3708 11.9546H68.0924L65.801 6.09892H65.6159L63.3708 11.9546ZM75.5037 18.9676V18.088L76.1981 17.9492C76.5221 17.8721 76.7536 17.7872 76.8924 17.6946C77.0466 17.602 77.147 17.4555 77.1933 17.2548C77.2396 17.0388 77.2628 16.7148 77.2628 16.2827V9.36237L75.6426 8.83003V8.08939L79.8319 6.93214L80.1327 7.1173V9.06148H80.3179C80.8734 8.36713 81.4828 7.83479 82.1464 7.46447C82.8252 7.07872 83.5582 6.88585 84.3451 6.88585C85.1474 6.88585 85.8264 7.07101 86.3819 7.44133C86.9374 7.79621 87.3308 8.33627 87.5623 9.06148H87.7243C88.2951 8.35169 88.92 7.81165 89.5991 7.44133C90.2779 7.07101 91.0031 6.88585 91.7747 6.88585C92.9165 6.88585 93.8115 7.20988 94.4595 7.85794C95.1076 8.506 95.4316 9.47038 95.4316 10.7511V16.1901C95.4316 16.653 95.4548 17.0002 95.501 17.2317C95.5473 17.4476 95.6476 17.602 95.8019 17.6946C95.9561 17.7872 96.1876 17.8721 96.4963 17.9492L97.1906 18.088V18.9676H90.9183V18.088L91.5664 17.9492C91.8595 17.8566 92.0756 17.7717 92.2144 17.6946C92.3533 17.602 92.4459 17.4476 92.4922 17.2317C92.5385 17.0002 92.5616 16.653 92.5616 16.1901V11.4223C92.5616 10.5736 92.3765 9.94099 92.0061 9.52438C91.6358 9.10777 91.0957 8.89946 90.386 8.89946C89.8768 8.89946 89.4216 9.00748 89.0204 9.2235C88.6191 9.43951 88.2025 9.74812 87.7706 10.1493C87.7706 10.2419 87.7706 10.3422 87.7706 10.4502C87.7859 10.5428 87.7937 10.6431 87.7937 10.7511V16.1901C87.7937 16.653 87.8091 16.9926 87.84 17.2085C87.8863 17.4245 87.9789 17.5789 88.1178 17.6714C88.2566 17.764 88.4726 17.8566 88.7658 17.9492L89.4139 18.088V18.9676H83.2805V18.088L83.9285 17.9492C84.2216 17.8566 84.4377 17.7717 84.5766 17.6946C84.7155 17.602 84.8002 17.4476 84.8312 17.2317C84.8775 17.0002 84.9006 16.653 84.9006 16.1901V11.4223C84.9006 10.5736 84.7231 9.94099 84.3683 9.52438C84.0288 9.10777 83.5119 8.89946 82.8176 8.89946C82.3084 8.89946 81.8455 9.01519 81.4289 9.24664C81.0123 9.46266 80.5802 9.77898 80.1327 10.1956V16.2827C80.1327 16.7148 80.1481 17.0388 80.179 17.2548C80.2253 17.4555 80.3179 17.602 80.4568 17.6946C80.5956 17.7717 80.8193 17.8566 81.128 17.9492L81.776 18.088V18.9676H75.5037ZM103.933 19.2221C103.162 19.2221 102.429 19.0909 101.735 18.8287C101.056 18.5509 100.454 18.1575 99.9293 17.6483C99.4047 17.1391 98.9881 16.5142 98.6794 15.7735C98.3864 15.0174 98.2397 14.1765 98.2397 13.2507C98.2397 11.97 98.4866 10.8591 98.9803 9.91785C99.4742 8.96119 100.161 8.22055 101.04 7.69592C101.92 7.15588 102.923 6.88585 104.049 6.88585C105.067 6.88585 105.947 7.09415 106.688 7.51076C107.428 7.92737 108.007 8.52143 108.423 9.29293C108.856 10.0644 109.079 10.9902 109.095 12.0703L108.886 12.3712H100.971V11.4686L105.97 11.0751C105.97 10.1647 105.77 9.4318 105.368 8.87632C104.983 8.3054 104.458 8.01995 103.794 8.01995C103.208 8.01995 102.722 8.21282 102.336 8.59858C101.966 8.9689 101.688 9.47038 101.503 10.103C101.318 10.7356 101.225 11.4609 101.225 12.2786C101.225 13.3742 101.38 14.2845 101.688 15.0098C102.012 15.7196 102.46 16.2519 103.031 16.6068C103.617 16.9463 104.304 17.116 105.091 17.116C105.723 17.116 106.302 16.9926 106.826 16.7456C107.367 16.4987 107.876 16.1439 108.354 15.681L109.025 16.329C108.454 17.3011 107.714 18.0263 106.803 18.5047C105.908 18.983 104.952 19.2221 103.933 19.2221ZM110.278 18.9676V18.088L110.949 17.9492C111.274 17.8721 111.513 17.7872 111.667 17.6946C111.821 17.602 111.922 17.4476 111.968 17.2317C112.014 17.0157 112.037 16.6917 112.037 16.2596V9.36237L110.417 8.80688V8.06624L114.606 6.93214L114.907 7.1173V10.2882H115.116C115.44 9.6864 115.787 9.13862 116.157 8.64487C116.527 8.13568 116.952 7.7345 117.43 7.44133C117.908 7.13273 118.441 6.97843 119.027 6.97843H119.328V10.0104L119.073 10.2187H116.365C116.103 10.4502 115.841 10.7279 115.578 11.052C115.316 11.376 115.092 11.6923 114.907 12.0009V16.2133C114.907 16.6299 114.93 16.9539 114.977 17.1854C115.038 17.4014 115.139 17.5557 115.278 17.6483C115.432 17.7409 115.679 17.818 116.018 17.8797L117.129 18.088V18.9676H110.278ZM120.06 18.9676V18.088L120.754 17.9492C121.078 17.8721 121.309 17.7872 121.448 17.6946C121.603 17.602 121.703 17.4555 121.749 17.2548C121.796 17.0388 121.819 16.7148 121.819 16.2827V9.36237L120.199 8.80688V8.06624L124.388 6.93214L124.689 7.1173V16.2827C124.689 16.7148 124.712 17.0388 124.758 17.2548C124.804 17.4555 124.897 17.602 125.036 17.6946C125.19 17.7872 125.429 17.8721 125.753 17.9492L126.448 18.088V18.9676H120.06ZM123.092 5.474C122.582 5.474 122.158 5.31198 121.819 4.98795C121.495 4.64849 121.333 4.23188 121.333 3.73812C121.333 3.24437 121.495 2.83547 121.819 2.51144C122.158 2.18741 122.582 2.02539 123.092 2.02539C123.616 2.02539 124.041 2.18741 124.365 2.51144C124.689 2.83547 124.851 3.24437 124.851 3.73812C124.851 4.23188 124.689 4.64849 124.365 4.98795C124.041 5.31198 123.616 5.474 123.092 5.474ZM133.298 19.2221C132.264 19.2221 131.33 18.9984 130.497 18.5509C129.664 18.1035 129.008 17.4323 128.53 16.5373C128.051 15.6423 127.812 14.5469 127.812 13.2507C127.812 11.9546 128.075 10.8359 128.599 9.8947C129.139 8.93804 129.872 8.1974 130.798 7.67278C131.739 7.14815 132.781 6.88585 133.923 6.88585C134.663 6.88585 135.373 6.96299 136.052 7.1173C136.746 7.2716 137.364 7.49533 137.904 7.7885V11.3297H137.024L136.538 10.3576C136.168 9.6324 135.751 9.06919 135.288 8.66801C134.841 8.26684 134.285 8.06624 133.622 8.06624C133.051 8.06624 132.557 8.2514 132.14 8.62172C131.724 8.97661 131.4 9.47038 131.168 10.103C130.937 10.7356 130.821 11.4686 130.821 12.3018C130.821 13.3819 130.976 14.2845 131.284 15.0098C131.608 15.7196 132.056 16.2519 132.627 16.6068C133.197 16.9616 133.846 17.1391 134.571 17.1391C135.203 17.1391 135.759 17.0002 136.237 16.7225C136.731 16.4447 137.178 16.1207 137.58 15.7504L138.251 16.4447C137.942 16.9694 137.533 17.44 137.024 17.8566C136.53 18.2732 135.967 18.6049 135.335 18.8518C134.702 19.0988 134.023 19.2221 133.298 19.2221ZM142.364 19.2221C141.809 19.2221 141.292 19.1296 140.813 18.9444C140.35 18.7438 139.98 18.4507 139.702 18.0649C139.425 17.6791 139.286 17.1854 139.286 16.5836C139.286 15.7349 139.594 15.0406 140.212 14.5006C140.829 13.9605 141.793 13.5748 143.105 13.3433L146.045 12.8341V10.5891C146.045 9.78669 145.883 9.21579 145.559 8.87632C145.249 8.53685 144.772 8.36713 144.123 8.36713C143.83 8.36713 143.537 8.40571 143.244 8.48285C142.966 8.56 142.688 8.6603 142.41 8.78374V11.0288H139.772L139.54 10.7511C139.726 10.0567 140.065 9.41637 140.559 8.83003C141.068 8.24369 141.724 7.77307 142.526 7.41818C143.329 7.0633 144.246 6.88585 145.281 6.88585C146.608 6.88585 147.549 7.21759 148.105 7.88108C148.66 8.52914 148.938 9.46266 148.938 10.6816V16.6068C148.938 17.1931 149.169 17.4863 149.632 17.4863C149.864 17.4863 150.102 17.4014 150.35 17.2317L150.674 17.926C150.38 18.3272 150.026 18.6435 149.609 18.875C149.193 19.1064 148.714 19.2221 148.174 19.2221C147.557 19.2221 147.07 19.0678 146.716 18.7592C146.36 18.4507 146.145 17.98 146.068 17.3474H145.883C145.42 18.0109 144.902 18.4892 144.331 18.7824C143.776 19.0756 143.12 19.2221 142.364 19.2221ZM143.753 17.4631C144.2 17.4631 144.601 17.3629 144.957 17.1622C145.311 16.9616 145.675 16.6685 146.045 16.2827V13.7831L144.331 14.1765C143.606 14.3308 143.082 14.5546 142.758 14.8477C142.434 15.141 142.272 15.5266 142.272 16.005C142.272 16.4679 142.41 16.8305 142.688 17.0928C142.966 17.3397 143.321 17.4631 143.753 17.4631ZM151.597 18.9676V18.088L152.291 17.9492C152.615 17.8721 152.847 17.7872 152.985 17.6946C153.14 17.602 153.24 17.4555 153.286 17.2548C153.333 17.0388 153.356 16.7148 153.356 16.2827V9.36237L151.736 8.83003V8.08939L155.925 6.93214L156.226 7.1173V9.06148H156.411C156.982 8.35169 157.607 7.81165 158.286 7.44133C158.98 7.07101 159.721 6.88585 160.508 6.88585C161.603 6.88585 162.459 7.20988 163.077 7.85794C163.709 8.506 164.026 9.47038 164.026 10.7511V16.1901C164.026 16.653 164.049 17.0002 164.095 17.2317C164.141 17.4476 164.241 17.602 164.396 17.6946C164.551 17.7872 164.782 17.8721 165.09 17.9492L165.785 18.088V18.9676H159.512V18.088L160.184 17.9492C160.461 17.8566 160.67 17.7717 160.809 17.6946C160.947 17.602 161.04 17.4476 161.086 17.2317C161.133 17.0002 161.156 16.653 161.156 16.1901V11.4223C161.156 10.5736 160.971 9.94099 160.6 9.52438C160.246 9.10777 159.713 8.89946 159.003 8.89946C158.478 8.89946 158.008 9.00748 157.591 9.2235C157.175 9.43951 156.719 9.77898 156.226 10.2419V16.2827C156.226 16.7148 156.242 17.0388 156.272 17.2548C156.318 17.4555 156.411 17.602 156.55 17.6946C156.689 17.7717 156.913 17.8566 157.221 17.9492L157.869 18.088V18.9676H151.597ZM171.416 18.9676V18.0186C171.802 17.9105 172.119 17.7872 172.365 17.6483C172.612 17.4939 172.821 17.2856 172.99 17.0234C173.175 16.7456 173.36 16.383 173.546 15.9356L178.499 4.06215L178.105 3.04377L178.29 2.76603H181.068L186.229 15.9124C186.43 16.4216 186.615 16.8074 186.784 17.0697C186.955 17.3319 187.155 17.5249 187.386 17.6483C187.634 17.7717 187.95 17.8952 188.335 18.0186V18.9676H181.438V18.0186C182.086 17.9105 182.558 17.7948 182.85 17.6714C183.143 17.548 183.298 17.3474 183.313 17.0697C183.345 16.7919 183.266 16.3985 183.081 15.8893L182.017 13.2739H176.346L175.351 15.7735C175.166 16.2982 175.089 16.707 175.119 17.0002C175.151 17.278 175.313 17.4863 175.605 17.6251C175.915 17.764 176.392 17.8952 177.04 18.0186V18.9676H171.416ZM176.809 11.9546H181.531L179.239 6.09892H179.054L176.809 11.9546ZM188.943 18.9676V18.088L189.614 17.9492C189.938 17.8721 190.177 17.7872 190.331 17.6946C190.485 17.602 190.586 17.4476 190.632 17.2317C190.679 17.0157 190.702 16.6917 190.702 16.2596V9.36237L189.082 8.80688V8.06624L193.271 6.93214L193.572 7.1173V10.2882H193.78C194.104 9.6864 194.451 9.13862 194.822 8.64487C195.192 8.13568 195.616 7.7345 196.095 7.44133C196.572 7.13273 197.104 6.97843 197.692 6.97843H197.992V10.0104L197.738 10.2187H195.03C194.767 10.4502 194.505 10.7279 194.243 11.052C193.98 11.376 193.757 11.6923 193.572 12.0009V16.2133C193.572 16.6299 193.595 16.9539 193.641 17.1854C193.702 17.4014 193.803 17.5557 193.942 17.6483C194.095 17.7409 194.343 17.818 194.683 17.8797L195.794 18.088V18.9676H188.943ZM205.622 19.2221C204.618 19.2221 203.654 19.0909 202.729 18.8287C201.817 18.5509 200.984 18.1498 200.229 17.6251V4.64078L198.47 3.99272V3.27522L202.821 2.02539L203.122 2.21055V9.01519H203.33C203.854 8.28998 204.433 7.75765 205.066 7.41818C205.698 7.0633 206.409 6.88585 207.195 6.88585C207.967 6.88585 208.645 7.04786 209.232 7.37189C209.818 7.68049 210.311 8.10482 210.714 8.64487C211.114 9.18491 211.415 9.80212 211.616 10.4965C211.816 11.1754 211.917 11.8929 211.917 12.649C211.917 13.297 211.848 13.9374 211.709 14.57C211.57 15.1872 211.346 15.7812 211.038 16.3522C210.728 16.9076 210.327 17.4014 209.834 17.8334C209.339 18.2655 208.738 18.6049 208.029 18.8518C207.334 19.0988 206.532 19.2221 205.622 19.2221ZM205.807 18.0418C206.409 18.0418 206.932 17.8643 207.381 17.5094C207.828 17.1391 208.175 16.6144 208.422 15.9356C208.668 15.2412 208.793 14.4234 208.793 13.4822C208.793 12.5872 208.684 11.7926 208.468 11.0982C208.251 10.4039 207.92 9.86385 207.473 9.47809C207.025 9.07691 206.462 8.87632 205.784 8.87632C205.305 8.87632 204.842 8.99204 204.395 9.2235C203.962 9.43951 203.539 9.77898 203.122 10.2419V14.57C203.122 15.7272 203.361 16.5991 203.839 17.1854C204.333 17.7563 204.988 18.0418 205.807 18.0418ZM213.342 18.9676V18.088L214.036 17.9492C214.36 17.8721 214.592 17.7872 214.731 17.6946C214.885 17.602 214.985 17.4555 215.032 17.2548C215.078 17.0388 215.101 16.7148 215.101 16.2827V9.36237L213.481 8.80688V8.06624L217.67 6.93214L217.971 7.1173V16.2827C217.971 16.7148 217.994 17.0388 218.04 17.2548C218.087 17.4555 218.179 17.602 218.318 17.6946C218.473 17.7872 218.712 17.8721 219.036 17.9492L219.73 18.088V18.9676H213.342ZM216.374 5.474C215.865 5.474 215.441 5.31198 215.101 4.98795C214.777 4.64849 214.615 4.23188 214.615 3.73812C214.615 3.24437 214.777 2.83547 215.101 2.51144C215.441 2.18741 215.865 2.02539 216.374 2.02539C216.899 2.02539 217.323 2.18741 217.647 2.51144C217.971 2.83547 218.133 3.24437 218.133 3.73812C218.133 4.23188 217.971 4.64849 217.647 4.98795C217.323 5.31198 216.899 5.474 216.374 5.474ZM225.493 19.2221C224.475 19.2221 223.688 18.9984 223.132 18.5509C222.591 18.1035 222.322 17.386 222.322 16.3985V8.73745H220.748V7.99681L224.868 4.5482L225.215 4.68707V7.44133L228.433 7.07101L228.687 7.34875L228.525 8.73745H225.215V15.681C225.215 16.3445 225.331 16.8074 225.563 17.0697C225.794 17.3166 226.156 17.44 226.65 17.44C226.958 17.44 227.252 17.386 227.53 17.278C227.808 17.1699 228.077 17.0157 228.34 16.8151L228.849 17.7177C228.417 18.1651 227.915 18.5278 227.345 18.8055C226.789 19.0833 226.172 19.2221 225.493 19.2221ZM229.627 18.9676V18.088L230.299 17.9492C230.623 17.8721 230.863 17.7872 231.016 17.6946C231.171 17.602 231.271 17.4476 231.317 17.2317C231.363 17.0157 231.386 16.6917 231.386 16.2596V9.36237L229.766 8.80688V8.06624L233.955 6.93214L234.256 7.1173V10.2882H234.465C234.789 9.6864 235.136 9.13862 235.506 8.64487C235.877 8.13568 236.302 7.7345 236.779 7.44133C237.258 7.13273 237.79 6.97843 238.376 6.97843H238.677V10.0104L238.422 10.2187H235.715C235.453 10.4502 235.191 10.7279 234.928 11.052C234.666 11.376 234.442 11.6923 234.256 12.0009V16.2133C234.256 16.6299 234.28 16.9539 234.326 17.1854C234.388 17.4014 234.488 17.5557 234.627 17.6483C234.781 17.7409 235.029 17.818 235.367 17.8797L236.478 18.088V18.9676H229.627ZM242.58 19.2221C242.024 19.2221 241.508 19.1296 241.029 18.9444C240.566 18.7438 240.196 18.4507 239.918 18.0649C239.64 17.6791 239.502 17.1854 239.502 16.5836C239.502 15.7349 239.811 15.0406 240.427 14.5006C241.045 13.9605 242.01 13.5748 243.321 13.3433L246.26 12.8341V10.5891C246.26 9.78669 246.098 9.21579 245.774 8.87632C245.466 8.53685 244.987 8.36713 244.339 8.36713C244.047 8.36713 243.753 8.40571 243.459 8.48285C243.182 8.56 242.904 8.6603 242.626 8.78374V11.0288H239.988L239.756 10.7511C239.941 10.0567 240.281 9.41637 240.775 8.83003C241.284 8.24369 241.941 7.77307 242.742 7.41818C243.545 7.0633 244.463 6.88585 245.496 6.88585C246.824 6.88585 247.764 7.21759 248.32 7.88108C248.875 8.52914 249.153 9.46266 249.153 10.6816V16.6068C249.153 17.1931 249.385 17.4863 249.847 17.4863C250.079 17.4863 250.319 17.4014 250.565 17.2317L250.889 17.926C250.597 18.3272 250.241 18.6435 249.824 18.875C249.408 19.1064 248.93 19.2221 248.389 19.2221C247.773 19.2221 247.287 19.0678 246.931 18.7592C246.577 18.4507 246.361 17.98 246.283 17.3474H246.098C245.635 18.0109 245.119 18.4892 244.547 18.7824C243.992 19.0756 243.336 19.2221 242.58 19.2221ZM243.969 17.4631C244.417 17.4631 244.818 17.3629 245.172 17.1622C245.528 16.9616 245.89 16.6685 246.26 16.2827V13.7831L244.547 14.1765C243.822 14.3308 243.297 14.5546 242.973 14.8477C242.649 15.141 242.487 15.5266 242.487 16.005C242.487 16.4679 242.626 16.8305 242.904 17.0928C243.182 17.3397 243.538 17.4631 243.969 17.4631ZM256.442 19.2221C255.424 19.2221 254.637 18.9984 254.082 18.5509C253.541 18.1035 253.271 17.386 253.271 16.3985V8.73745H251.698V7.99681L255.817 4.5482L256.165 4.68707V7.44133L259.382 7.07101L259.636 7.34875L259.474 8.73745H256.165V15.681C256.165 16.3445 256.28 16.8074 256.512 17.0697C256.743 17.3166 257.105 17.44 257.6 17.44C257.908 17.44 258.201 17.386 258.479 17.278C258.757 17.1699 259.026 17.0157 259.289 16.8151L259.798 17.7177C259.366 18.1651 258.864 18.5278 258.294 18.8055C257.738 19.0833 257.121 19.2221 256.442 19.2221ZM260.577 18.9676V18.088L261.271 17.9492C261.595 17.8721 261.826 17.7872 261.965 17.6946C262.12 17.602 262.22 17.4555 262.266 17.2548C262.312 17.0388 262.336 16.7148 262.336 16.2827V9.36237L260.715 8.80688V8.06624L264.905 6.93214L265.206 7.1173V16.2827C265.206 16.7148 265.229 17.0388 265.275 17.2548C265.321 17.4555 265.414 17.602 265.553 17.6946C265.708 17.7872 265.946 17.8721 266.27 17.9492L266.965 18.088V18.9676H260.577ZM263.609 5.474C263.099 5.474 262.676 5.31198 262.336 4.98795C262.012 4.64849 261.85 4.23188 261.85 3.73812C261.85 3.24437 262.012 2.83547 262.336 2.51144C262.676 2.18741 263.099 2.02539 263.609 2.02539C264.134 2.02539 264.558 2.18741 264.882 2.51144C265.206 2.83547 265.368 3.24437 265.368 3.73812C265.368 4.23188 265.206 4.64849 264.882 4.98795C264.558 5.31198 264.134 5.474 263.609 5.474ZM274.255 19.2221C273.036 19.2221 271.971 18.9752 271.061 18.4815C270.166 17.9723 269.472 17.2625 268.978 16.3522C268.484 15.4418 268.238 14.3694 268.238 13.135C268.238 12.3018 268.368 11.5149 268.631 10.7742C268.893 10.0181 269.279 9.34693 269.788 8.76059C270.312 8.17426 270.96 7.71907 271.733 7.39504C272.519 7.05557 273.429 6.88585 274.464 6.88585C275.698 6.88585 276.762 7.14044 277.658 7.64963C278.568 8.14339 279.269 8.85317 279.764 9.77898C280.257 10.6893 280.504 11.7617 280.504 12.9961C280.504 13.8294 280.373 14.624 280.111 15.3801C279.848 16.1207 279.454 16.7843 278.931 17.3705C278.421 17.9415 277.773 18.3966 276.986 18.7361C276.2 19.0601 275.288 19.2221 274.255 19.2221ZM274.487 18.0418C275.135 18.0418 275.667 17.8411 276.084 17.44C276.515 17.0234 276.839 16.4756 277.056 15.7967C277.271 15.1023 277.38 14.354 277.38 13.5516C277.38 12.8727 277.318 12.2092 277.195 11.5611C277.086 10.9131 276.901 10.3267 276.639 9.80212C276.392 9.2775 276.068 8.86089 275.667 8.55229C275.265 8.22826 274.779 8.06624 274.209 8.06624C273.575 8.06624 273.043 8.27455 272.612 8.69116C272.18 9.09233 271.855 9.64011 271.64 10.3345C271.439 11.0134 271.339 11.7617 271.339 12.5795C271.339 13.243 271.393 13.8988 271.501 14.5469C271.624 15.1949 271.809 15.789 272.057 16.329C272.318 16.8537 272.642 17.2703 273.029 17.5789C273.429 17.8874 273.915 18.0418 274.487 18.0418ZM281.812 18.9676V18.088L282.507 17.9492C282.831 17.8721 283.062 17.7872 283.201 17.6946C283.356 17.602 283.455 17.4555 283.502 17.2548C283.548 17.0388 283.571 16.7148 283.571 16.2827V9.36237L281.951 8.83003V8.08939L286.14 6.93214L286.441 7.1173V9.06148H286.626C287.198 8.35169 287.823 7.81165 288.501 7.44133C289.195 7.07101 289.936 6.88585 290.723 6.88585C291.82 6.88585 292.676 7.20988 293.292 7.85794C293.926 8.506 294.241 9.47038 294.241 10.7511V16.1901C294.241 16.653 294.264 17.0002 294.31 17.2317C294.357 17.4476 294.458 17.602 294.611 17.6946C294.766 17.7872 294.998 17.8721 295.306 17.9492L296 18.088V18.9676H289.728V18.088L290.399 17.9492C290.677 17.8566 290.885 17.7717 291.024 17.6946C291.163 17.602 291.255 17.4476 291.302 17.2317C291.348 17.0002 291.371 16.653 291.371 16.1901V11.4223C291.371 10.5736 291.186 9.94099 290.816 9.52438C290.461 9.10777 289.929 8.89946 289.219 8.89946C288.695 8.89946 288.223 9.00748 287.807 9.2235C287.39 9.43951 286.936 9.77898 286.441 10.2419V16.2827C286.441 16.7148 286.457 17.0388 286.487 17.2548C286.534 17.4555 286.626 17.602 286.765 17.6946C286.904 17.7717 287.128 17.8566 287.436 17.9492L288.084 18.088V18.9676H281.812ZM57.978 43.5591V42.6102C58.3638 42.5021 58.68 42.3788 58.927 42.2399C59.1739 42.0855 59.3822 41.8772 59.5519 41.615C59.737 41.3372 59.9222 40.9746 60.1074 40.5271L65.0604 28.6537L64.6669 27.6354L64.8521 27.3576H67.6295L72.7908 40.504C72.9915 41.0132 73.1766 41.399 73.3463 41.6613C73.516 41.9235 73.7166 42.1165 73.9481 42.2399C74.195 42.3633 74.5112 42.4868 74.897 42.6102V43.5591H67.9998V42.6102C68.6479 42.5021 69.1185 42.3864 69.4117 42.263C69.7049 42.1396 69.8591 41.939 69.8746 41.6613C69.9054 41.3835 69.8283 40.99 69.6431 40.4809L68.5785 37.8655H62.9079L61.9127 40.3651C61.7275 40.8898 61.6504 41.2986 61.6812 41.5918C61.712 41.8696 61.8741 42.0779 62.1673 42.2167C62.4758 42.3556 62.9542 42.4868 63.6023 42.6102V43.5591H57.978ZM63.3708 36.5462H68.0924L65.801 30.6905H65.6159L63.3708 36.5462ZM80.017 43.8137C79.2917 43.8137 78.5589 43.752 77.8182 43.6286C77.0929 43.5205 76.3909 43.3354 75.712 43.0731V39.9254H76.5915L76.985 40.7355C77.2936 41.368 77.6639 41.8464 78.096 42.1704C78.5434 42.479 79.1838 42.6333 80.017 42.6333C80.449 42.6333 80.8271 42.5716 81.1511 42.4482C81.4905 42.3093 81.7529 42.1242 81.938 41.8927C82.1232 41.6458 82.2158 41.3527 82.2158 41.0132C82.2158 40.6584 82.1154 40.3651 81.9149 40.1337C81.7297 39.9022 81.4365 39.6863 81.0354 39.4856C80.6341 39.285 80.0941 39.0613 79.4152 38.8144C78.8598 38.5984 78.3043 38.3438 77.7488 38.0506C77.2086 37.7421 76.7612 37.3486 76.4064 36.8702C76.0514 36.3765 75.8741 35.7669 75.8741 35.0418C75.8741 34.4245 76.0051 33.8922 76.2675 33.4448C76.5298 32.9973 76.877 32.627 77.309 32.3338C77.7565 32.0406 78.2657 31.8246 78.8366 31.6857C79.4229 31.5469 80.0402 31.4774 80.6882 31.4774C81.3053 31.4774 81.9457 31.5469 82.6093 31.6857C83.2881 31.8246 83.913 32.0253 84.484 32.2875V35.2964H83.6045L83.211 34.5094C82.9023 33.8769 82.532 33.414 82.1001 33.1207C81.6835 32.8275 81.1511 32.681 80.5031 32.681C80.1173 32.681 79.7701 32.7428 79.4615 32.8661C79.1528 32.9742 78.9137 33.1439 78.744 33.3753C78.5742 33.6068 78.4894 33.8922 78.4894 34.2317C78.4894 34.7254 78.6977 35.1267 79.1144 35.4352C79.5463 35.7438 80.2485 36.0833 81.2206 36.4536C81.7914 36.6696 82.3547 36.9242 82.9101 37.2174C83.481 37.5106 83.9517 37.8963 84.322 38.3747C84.6923 38.8376 84.8775 39.447 84.8775 40.2031C84.8775 41.0209 84.646 41.6999 84.1831 42.2399C83.7356 42.7799 83.1416 43.1812 82.401 43.4434C81.6756 43.6904 80.881 43.8137 80.017 43.8137ZM90.7252 43.8137C89.9999 43.8137 89.2671 43.752 88.5264 43.6286C87.8011 43.5205 87.0991 43.3354 86.4202 43.0731V39.9254H87.2997L87.6932 40.7355C88.0018 41.368 88.3721 41.8464 88.8042 42.1704C89.2516 42.479 89.892 42.6333 90.7252 42.6333C91.1571 42.6333 91.5353 42.5716 91.8593 42.4482C92.1987 42.3093 92.4611 42.1242 92.6462 41.8927C92.8314 41.6458 92.924 41.3527 92.924 41.0132C92.924 40.6584 92.8236 40.3651 92.6231 40.1337C92.4379 39.9022 92.1447 39.6863 91.7436 39.4856C91.3423 39.285 90.8023 39.0613 90.1234 38.8144C89.568 38.5984 89.0125 38.3438 88.457 38.0506C87.9168 37.7421 87.4694 37.3486 87.1146 36.8702C86.7596 36.3765 86.5822 35.7669 86.5822 35.0418C86.5822 34.4245 86.7133 33.8922 86.9757 33.4448C87.238 32.9973 87.5852 32.627 88.0172 32.3338C88.4647 32.0406 88.9739 31.8246 89.5448 31.6857C90.1311 31.5469 90.7484 31.4774 91.3964 31.4774C92.0135 31.4774 92.6539 31.5469 93.3175 31.6857C93.9963 31.8246 94.6212 32.0253 95.1922 32.2875V35.2964H94.3127L93.9192 34.5094C93.6105 33.8769 93.2402 33.414 92.8083 33.1207C92.3916 32.8275 91.8593 32.681 91.2113 32.681C90.8255 32.681 90.4783 32.7428 90.1697 32.8661C89.861 32.9742 89.6219 33.1439 89.4522 33.3753C89.2824 33.6068 89.1976 33.8922 89.1976 34.2317C89.1976 34.7254 89.4059 35.1267 89.8225 35.4352C90.2545 35.7438 90.9567 36.0833 91.9287 36.4536C92.4996 36.6696 93.0629 36.9242 93.6183 37.2174C94.1892 37.5106 94.6599 37.8963 95.0302 38.3747C95.4005 38.8376 95.5857 39.447 95.5857 40.2031C95.5857 41.0209 95.3542 41.6999 94.8913 42.2399C94.4437 42.7799 93.8498 43.1812 93.1091 43.4434C92.3838 43.6904 91.5892 43.8137 90.7252 43.8137ZM103.19 43.8137C101.971 43.8137 100.906 43.5668 99.9957 43.0731C99.1007 42.5639 98.4063 41.8541 97.9126 40.9438C97.4189 40.0334 97.172 38.961 97.172 37.7266C97.172 36.8934 97.3032 36.1064 97.5654 35.3658C97.8277 34.6097 98.2135 33.9385 98.7227 33.3522C99.2473 32.7659 99.8954 32.3107 100.667 31.9866C101.454 31.6471 102.364 31.4774 103.398 31.4774C104.632 31.4774 105.697 31.732 106.592 32.2412C107.502 32.7349 108.204 33.4448 108.698 34.3706C109.192 35.2809 109.439 36.3534 109.439 37.5877C109.439 38.421 109.308 39.2156 109.045 39.9717C108.783 40.7123 108.39 41.3758 107.865 41.9621C107.356 42.5331 106.708 42.9882 105.921 43.3277C105.134 43.6517 104.224 43.8137 103.19 43.8137ZM103.421 42.6333C104.069 42.6333 104.602 42.4327 105.018 42.0316C105.45 41.615 105.774 41.0672 105.99 40.3883C106.206 39.6939 106.314 38.9456 106.314 38.1432C106.314 37.4643 106.252 36.8008 106.129 36.1527C106.021 35.5047 105.836 34.9184 105.574 34.3937C105.327 33.869 105.003 33.4524 104.602 33.1439C104.2 32.8199 103.714 32.6578 103.143 32.6578C102.511 32.6578 101.978 32.8661 101.546 33.2828C101.114 33.6839 100.79 34.2317 100.574 34.9261C100.374 35.6049 100.273 36.3534 100.273 37.1711C100.273 37.8347 100.327 38.4904 100.435 39.1384C100.559 39.7865 100.744 40.3806 100.991 40.9206C101.253 41.4453 101.577 41.8619 101.963 42.1704C102.364 42.479 102.85 42.6333 103.421 42.6333ZM116.464 43.8137C115.431 43.8137 114.497 43.59 113.664 43.1425C112.83 42.6951 112.175 42.0239 111.696 41.1289C111.218 40.2339 110.979 39.1384 110.979 37.8423C110.979 36.5462 111.241 35.4276 111.766 34.4863C112.306 33.5297 113.039 32.789 113.965 32.2644C114.906 31.7397 115.947 31.4774 117.089 31.4774C117.83 31.4774 118.54 31.5545 119.218 31.7089C119.913 31.8632 120.53 32.0869 121.07 32.3801V35.9213H120.191L119.705 34.9492C119.334 34.224 118.918 33.6607 118.455 33.2596C118.007 32.8585 117.452 32.6578 116.788 32.6578C116.217 32.6578 115.724 32.843 115.307 33.2133C114.89 33.5682 114.566 34.062 114.335 34.6946C114.103 35.3272 113.988 36.0602 113.988 36.8934C113.988 37.9735 114.142 38.8762 114.451 39.6013C114.775 40.3112 115.222 40.8435 115.793 41.1984C116.364 41.5532 117.012 41.7307 117.737 41.7307C118.37 41.7307 118.925 41.5918 119.404 41.3141C119.897 41.0363 120.345 40.7123 120.746 40.342L121.417 41.0363C121.109 41.561 120.7 42.0316 120.191 42.4482C119.697 42.8648 119.134 43.1965 118.501 43.4434C117.868 43.6904 117.19 43.8137 116.464 43.8137ZM122.473 43.5591V42.6796L123.167 42.5408C123.491 42.4637 123.723 42.3788 123.862 42.2862C124.016 42.1936 124.116 42.0471 124.162 41.8464C124.209 41.6304 124.232 41.3064 124.232 40.8743V33.954L122.612 33.3985V32.6578L126.801 31.5237L127.102 31.7089V40.8743C127.102 41.3064 127.125 41.6304 127.171 41.8464C127.218 42.0471 127.31 42.1936 127.449 42.2862C127.603 42.3788 127.842 42.4637 128.166 42.5408L128.861 42.6796V43.5591H122.473ZM125.505 30.0656C124.996 30.0656 124.571 29.9036 124.232 29.5796C123.908 29.24 123.746 28.8234 123.746 28.3297C123.746 27.836 123.908 27.4271 124.232 27.103C124.571 26.779 124.996 26.617 125.505 26.617C126.029 26.617 126.454 26.779 126.778 27.103C127.102 27.4271 127.264 27.836 127.264 28.3297C127.264 28.8234 127.102 29.24 126.778 29.5796C126.454 29.9036 126.029 30.0656 125.505 30.0656ZM133.165 43.8137C132.609 43.8137 132.092 43.7212 131.614 43.536C131.151 43.3354 130.781 43.0423 130.503 42.6565C130.225 42.2707 130.087 41.777 130.087 41.1752C130.087 40.3265 130.395 39.6322 131.012 39.0922C131.63 38.5522 132.594 38.1664 133.905 37.9349L136.845 37.4257V35.1806C136.845 34.3782 136.683 33.8074 136.359 33.4679C136.05 33.1284 135.572 32.9587 134.924 32.9587C134.631 32.9587 134.338 32.9973 134.044 33.0745C133.767 33.1516 133.489 33.2519 133.211 33.3753V35.6204H130.573L130.341 35.3427C130.526 34.6483 130.866 34.0079 131.359 33.4216C131.869 32.8353 132.525 32.3646 133.327 32.0098C134.129 31.6549 135.047 31.4774 136.081 31.4774C137.408 31.4774 138.349 31.8091 138.905 32.4727C139.46 33.1207 139.738 34.0542 139.738 35.2732V41.1984C139.738 41.7846 139.969 42.0779 140.432 42.0779C140.664 42.0779 140.903 41.993 141.15 41.8233L141.474 42.5176C141.181 42.9188 140.826 43.2351 140.409 43.4666C139.993 43.698 139.514 43.8137 138.974 43.8137C138.357 43.8137 137.871 43.6594 137.516 43.3508C137.161 43.0423 136.945 42.5716 136.868 41.939H136.683C136.22 42.6025 135.703 43.0808 135.132 43.374C134.577 43.6672 133.921 43.8137 133.165 43.8137ZM134.554 42.0547C135.001 42.0547 135.402 41.9545 135.757 41.7538C136.112 41.5532 136.475 41.2601 136.845 40.8743V38.3747L135.132 38.7681C134.407 38.9225 133.882 39.1461 133.558 39.4393C133.234 39.7326 133.072 40.1182 133.072 40.5966C133.072 41.0595 133.211 41.4221 133.489 41.6844C133.767 41.9313 134.122 42.0547 134.554 42.0547ZM147.027 43.8137C146.009 43.8137 145.222 43.59 144.666 43.1425C144.126 42.6951 143.855 41.9776 143.855 40.9901V33.329H142.282V32.5884L146.402 29.1398L146.749 29.2787V32.0329L149.967 31.6626L150.221 31.9403L150.059 33.329H146.749V40.2726C146.749 40.9361 146.865 41.399 147.097 41.6613C147.328 41.9082 147.69 42.0316 148.184 42.0316C148.492 42.0316 148.786 41.9776 149.064 41.8696C149.342 41.7615 149.611 41.6073 149.874 41.4067L150.383 42.3093C149.951 42.7567 149.449 43.1194 148.879 43.3971C148.323 43.6749 147.706 43.8137 147.027 43.8137ZM151.161 43.5591V42.6796L151.856 42.5408C152.18 42.4637 152.411 42.3788 152.55 42.2862C152.705 42.1936 152.805 42.0471 152.851 41.8464C152.897 41.6304 152.92 41.3064 152.92 40.8743V33.954L151.3 33.3985V32.6578L155.489 31.5237L155.79 31.7089V40.8743C155.79 41.3064 155.814 41.6304 155.86 41.8464C155.906 42.0471 155.999 42.1936 156.138 42.2862C156.292 42.3788 156.531 42.4637 156.855 42.5408L157.549 42.6796V43.5591H151.161ZM154.193 30.0656C153.684 30.0656 153.26 29.9036 152.92 29.5796C152.596 29.24 152.434 28.8234 152.434 28.3297C152.434 27.836 152.596 27.4271 152.92 27.103C153.26 26.779 153.684 26.617 154.193 26.617C154.718 26.617 155.142 26.779 155.466 27.103C155.79 27.4271 155.952 27.836 155.952 28.3297C155.952 28.8234 155.79 29.24 155.466 29.5796C155.142 29.9036 154.718 30.0656 154.193 30.0656ZM164.84 43.8137C163.621 43.8137 162.556 43.5668 161.646 43.0731C160.751 42.5639 160.056 41.8541 159.563 40.9438C159.068 40.0334 158.822 38.961 158.822 37.7266C158.822 36.8934 158.953 36.1064 159.216 35.3658C159.478 34.6097 159.864 33.9385 160.373 33.3522C160.897 32.7659 161.545 32.3107 162.317 31.9866C163.104 31.6471 164.014 31.4774 165.048 31.4774C166.282 31.4774 167.347 31.732 168.242 32.2412C169.152 32.7349 169.854 33.4448 170.349 34.3706C170.842 35.2809 171.089 36.3534 171.089 37.5877C171.089 38.421 170.958 39.2156 170.696 39.9717C170.432 40.7123 170.039 41.3758 169.515 41.9621C169.006 42.5331 168.358 42.9882 167.571 43.3277C166.784 43.6517 165.873 43.8137 164.84 43.8137ZM165.072 42.6333C165.72 42.6333 166.252 42.4327 166.669 42.0316C167.1 41.615 167.424 41.0672 167.641 40.3883C167.856 39.6939 167.965 38.9456 167.965 38.1432C167.965 37.4643 167.902 36.8008 167.779 36.1527C167.671 35.5047 167.486 34.9184 167.224 34.3937C166.977 33.869 166.653 33.4524 166.252 33.1439C165.85 32.8199 165.364 32.6578 164.794 32.6578C164.16 32.6578 163.628 32.8661 163.197 33.2828C162.764 33.6839 162.44 34.2317 162.225 34.9261C162.024 35.6049 161.924 36.3534 161.924 37.1711C161.924 37.8347 161.977 38.4904 162.086 39.1384C162.209 39.7865 162.394 40.3806 162.641 40.9206C162.903 41.4453 163.227 41.8619 163.613 42.1704C164.014 42.479 164.5 42.6333 165.072 42.6333ZM172.397 43.5591V42.6796L173.091 42.5408C173.415 42.4637 173.647 42.3788 173.786 42.2862C173.94 42.1936 174.04 42.0471 174.087 41.8464C174.133 41.6304 174.156 41.3064 174.156 40.8743V33.954L172.536 33.4216V32.681L176.725 31.5237L177.026 31.7089V33.6531H177.211C177.782 32.9432 178.407 32.4032 179.086 32.0329C179.78 31.6626 180.521 31.4774 181.308 31.4774C182.404 31.4774 183.261 31.8015 183.877 32.4495C184.51 33.0976 184.826 34.062 184.826 35.3427V40.7817C184.826 41.2446 184.849 41.5918 184.895 41.8233C184.942 42.0392 185.043 42.1936 185.196 42.2862C185.351 42.3788 185.582 42.4637 185.89 42.5408L186.585 42.6796V43.5591H180.313V42.6796L180.984 42.5408C181.261 42.4482 181.47 42.3633 181.609 42.2862C181.748 42.1936 181.84 42.0392 181.886 41.8233C181.933 41.5918 181.956 41.2446 181.956 40.7817V36.0139C181.956 35.1652 181.771 34.5326 181.4 34.116C181.046 33.6994 180.514 33.4911 179.803 33.4911C179.28 33.4911 178.808 33.5991 178.391 33.8151C177.975 34.0311 177.521 34.3706 177.026 34.8335V40.8743C177.026 41.3064 177.042 41.6304 177.072 41.8464C177.119 42.0471 177.211 42.1936 177.35 42.2862C177.489 42.3633 177.713 42.4482 178.021 42.5408L178.669 42.6796V43.5591H172.397ZM191.937 37.2637C190.903 37.2637 189.977 37.0399 189.16 36.5925C188.357 36.1296 187.725 35.497 187.262 34.6946C186.799 33.8922 186.567 32.9742 186.567 31.9403C186.567 30.9065 186.799 29.9885 187.262 29.1861C187.725 28.3837 188.357 27.7588 189.16 27.3113C189.977 26.8484 190.903 26.617 191.937 26.617C192.986 26.617 193.912 26.8484 194.715 27.3113C195.516 27.7588 196.15 28.3837 196.612 29.1861C197.075 29.9885 197.307 30.9065 197.307 31.9403C197.307 32.9742 197.075 33.8922 196.612 34.6946C196.15 35.497 195.516 36.1296 194.715 36.5925C193.912 37.0399 192.986 37.2637 191.937 37.2637ZM191.937 36.4999C192.817 36.4999 193.595 36.3071 194.275 35.9213C194.953 35.5202 195.486 34.98 195.872 34.3011C196.272 33.6068 196.474 32.8199 196.474 31.9403C196.474 31.0454 196.272 30.2584 195.872 29.5796C195.486 28.9007 194.953 28.3683 194.275 27.9825C193.595 27.5814 192.817 27.3808 191.937 27.3808C191.058 27.3808 190.271 27.5814 189.576 27.9825C188.896 28.3683 188.364 28.9007 187.979 29.5796C187.593 30.2584 187.401 31.0454 187.401 31.9403C187.401 32.8199 187.593 33.6068 187.979 34.3011C188.364 34.98 188.896 35.5202 189.576 35.9213C190.271 36.3071 191.058 36.4999 191.937 36.4999ZM189.275 34.5789V34.1391L189.53 34.0928C189.699 34.0465 189.808 33.9848 189.854 33.9077C189.915 33.8306 189.947 33.7225 189.947 33.5836V30.2276C189.947 30.0425 189.915 29.9112 189.854 29.8341C189.808 29.757 189.699 29.7029 189.53 29.6721L189.275 29.6258V29.1861H192.03C192.817 29.1861 193.418 29.325 193.835 29.6027C194.252 29.865 194.46 30.2508 194.46 30.7599C194.46 31.1611 194.328 31.4851 194.066 31.732C193.803 31.979 193.518 32.1332 193.21 32.1949L194.691 34.1391V34.5789H193.372L191.914 32.4032L191.266 32.3801V33.5836C191.266 33.7225 191.289 33.8306 191.335 33.9077C191.382 33.9694 191.497 34.0311 191.683 34.0928L191.914 34.1391V34.5789H189.275ZM191.266 31.732H191.937C192.307 31.732 192.585 31.6471 192.77 31.4774C192.956 31.3078 193.048 31.0763 193.048 30.7831C193.048 30.4591 192.947 30.2199 192.747 30.0656C192.562 29.9112 192.299 29.8341 191.96 29.8341H191.266V31.732Z" fill="#272423"/>
</svg>
